<svg xmlns="http://www.w3.org/2000/svg" width="420mm" height="297mm" viewBox="0 0 420 297">
<rect x="10" y="10" width="400" height="277" fill="white" stroke="#333" stroke-width="0.3"/>
<metadata>{&quot;revision&quot;: 3, &quot;units&quot;: &quot;mm&quot;, &quot;view&quot;: &quot;section&quot;, &quot;dimensions&quot;: [{&quot;name&quot;: &quot;projected_width&quot;, &quot;value_mm&quot;: 10600.0}, {&quot;name&quot;: &quot;projected_height&quot;, &quot;value_mm&quot;: 3150.0}], &quot;annotations&quot;: []}</metadata>
<g font-family="sans-serif" fill="#111">
<text x="16" y="21" font-size="5">Compact modern house — review example / section</text>
<text x="16" y="29" font-size="3.5">Revision 3 | model mm | scale 1:50 at A3</text>
<text x="16" y="279" font-size="3">Vertical XZ section at world Y=4000 mm.</text>
<text x="16" y="284" font-size="3">REVIEW SET | Verify dimensions, construction and required approvals.</text></g>
<line data-entity="east" x1="311.500000" y1="174.000000" x2="311.055556" y2="174.000000" stroke="#253543" stroke-width="0.25"/>
<line data-entity="east" x1="311.500000" y1="156.000000" x2="311.055556" y2="156.000000" stroke="#253543" stroke-width="0.25"/>
<line data-entity="east" x1="307.500000" y1="174.000000" x2="311.055556" y2="174.000000" stroke="#253543" stroke-width="0.25"/>
<line data-entity="east" x1="307.500000" y1="156.000000" x2="311.055556" y2="156.000000" stroke="#253543" stroke-width="0.25"/>
<line data-entity="east" x1="311.500000" y1="174.000000" x2="311.500000" y2="158.000000" stroke="#253543" stroke-width="0.25"/>
<line data-entity="east" x1="311.500000" y1="158.000000" x2="311.500000" y2="156.000000" stroke="#253543" stroke-width="0.25"/>
<line data-entity="east" x1="307.500000" y1="174.000000" x2="307.500000" y2="172.000000" stroke="#253543" stroke-width="0.25"/>
<line data-entity="east" x1="307.500000" y1="172.000000" x2="307.500000" y2="156.000000" stroke="#253543" stroke-width="0.25"/>
<line data-entity="east" x1="311.500000" y1="132.000000" x2="311.055556" y2="132.000000" stroke="#253543" stroke-width="0.25"/>
<line data-entity="east" x1="311.500000" y1="118.000000" x2="311.055556" y2="118.000000" stroke="#253543" stroke-width="0.25"/>
<line data-entity="east" x1="307.500000" y1="132.000000" x2="311.055556" y2="132.000000" stroke="#253543" stroke-width="0.25"/>
<line data-entity="east" x1="307.500000" y1="118.000000" x2="311.055556" y2="118.000000" stroke="#253543" stroke-width="0.25"/>
<line data-entity="east" x1="311.500000" y1="132.000000" x2="311.500000" y2="119.555556" stroke="#253543" stroke-width="0.25"/>
<line data-entity="east" x1="311.500000" y1="119.555556" x2="311.500000" y2="118.000000" stroke="#253543" stroke-width="0.25"/>
<line data-entity="east" x1="307.500000" y1="132.000000" x2="307.500000" y2="130.444444" stroke="#253543" stroke-width="0.25"/>
<line data-entity="east" x1="307.500000" y1="130.444444" x2="307.500000" y2="118.000000" stroke="#253543" stroke-width="0.25"/>
<line data-entity="west" x1="107.500000" y1="174.000000" x2="108.833333" y2="174.000000" stroke="#253543" stroke-width="0.25"/>
<line data-entity="west" x1="107.500000" y1="156.000000" x2="108.833333" y2="156.000000" stroke="#253543" stroke-width="0.25"/>
<line data-entity="west" x1="111.500000" y1="174.000000" x2="108.833333" y2="174.000000" stroke="#253543" stroke-width="0.25"/>
<line data-entity="west" x1="111.500000" y1="156.000000" x2="108.833333" y2="156.000000" stroke="#253543" stroke-width="0.25"/>
<line data-entity="west" x1="107.500000" y1="174.000000" x2="107.500000" y2="162.000000" stroke="#253543" stroke-width="0.25"/>
<line data-entity="west" x1="107.500000" y1="162.000000" x2="107.500000" y2="156.000000" stroke="#253543" stroke-width="0.25"/>
<line data-entity="west" x1="111.500000" y1="174.000000" x2="111.500000" y2="168.000000" stroke="#253543" stroke-width="0.25"/>
<line data-entity="west" x1="111.500000" y1="168.000000" x2="111.500000" y2="156.000000" stroke="#253543" stroke-width="0.25"/>
<line data-entity="west" x1="107.500000" y1="132.000000" x2="108.833333" y2="132.000000" stroke="#253543" stroke-width="0.25"/>
<line data-entity="west" x1="107.500000" y1="118.000000" x2="108.833333" y2="118.000000" stroke="#253543" stroke-width="0.25"/>
<line data-entity="west" x1="111.500000" y1="132.000000" x2="108.833333" y2="132.000000" stroke="#253543" stroke-width="0.25"/>
<line data-entity="west" x1="111.500000" y1="118.000000" x2="108.833333" y2="118.000000" stroke="#253543" stroke-width="0.25"/>
<line data-entity="west" x1="107.500000" y1="132.000000" x2="107.500000" y2="122.666667" stroke="#253543" stroke-width="0.25"/>
<line data-entity="west" x1="107.500000" y1="122.666667" x2="107.500000" y2="118.000000" stroke="#253543" stroke-width="0.25"/>
<line data-entity="west" x1="111.500000" y1="132.000000" x2="111.500000" y2="127.333333" stroke="#253543" stroke-width="0.25"/>
<line data-entity="west" x1="111.500000" y1="127.333333" x2="111.500000" y2="118.000000" stroke="#253543" stroke-width="0.25"/>
<line data-entity="partition" x1="231.500000" y1="132.000000" x2="231.055556" y2="132.000000" stroke="#253543" stroke-width="0.25"/>
<line data-entity="partition" x1="231.500000" y1="118.000000" x2="231.055556" y2="118.000000" stroke="#253543" stroke-width="0.25"/>
<line data-entity="partition" x1="227.500000" y1="132.000000" x2="231.055556" y2="132.000000" stroke="#253543" stroke-width="0.25"/>
<line data-entity="partition" x1="227.500000" y1="118.000000" x2="231.055556" y2="118.000000" stroke="#253543" stroke-width="0.25"/>
<line data-entity="partition" x1="231.500000" y1="132.000000" x2="231.500000" y2="119.555556" stroke="#253543" stroke-width="0.25"/>
<line data-entity="partition" x1="231.500000" y1="119.555556" x2="231.500000" y2="118.000000" stroke="#253543" stroke-width="0.25"/>
<line data-entity="partition" x1="227.500000" y1="132.000000" x2="227.500000" y2="130.444444" stroke="#253543" stroke-width="0.25"/>
<line data-entity="partition" x1="227.500000" y1="130.444444" x2="227.500000" y2="118.000000" stroke="#253543" stroke-width="0.25"/>
<line data-entity="living" x1="111.500000" y1="174.000000" x2="169.500000" y2="174.000000" stroke="#9aa5ab" stroke-width="0.25"/>
<line data-entity="living" x1="111.500000" y1="118.000000" x2="169.500000" y2="118.000000" stroke="#9aa5ab" stroke-width="0.25"/>
<line data-entity="living" x1="227.500000" y1="174.000000" x2="169.500000" y2="174.000000" stroke="#9aa5ab" stroke-width="0.25"/>
<line data-entity="living" x1="227.500000" y1="118.000000" x2="169.500000" y2="118.000000" stroke="#9aa5ab" stroke-width="0.25"/>
<line data-entity="living" x1="227.500000" y1="174.000000" x2="227.500000" y2="146.000000" stroke="#9aa5ab" stroke-width="0.25"/>
<line data-entity="living" x1="227.500000" y1="146.000000" x2="227.500000" y2="118.000000" stroke="#9aa5ab" stroke-width="0.25"/>
<line data-entity="living" x1="111.500000" y1="174.000000" x2="111.500000" y2="146.000000" stroke="#9aa5ab" stroke-width="0.25"/>
<line data-entity="living" x1="111.500000" y1="146.000000" x2="111.500000" y2="118.000000" stroke="#9aa5ab" stroke-width="0.25"/>
<line data-entity="room" x1="231.500000" y1="174.000000" x2="269.500000" y2="174.000000" stroke="#9aa5ab" stroke-width="0.25"/>
<line data-entity="room" x1="231.500000" y1="118.000000" x2="269.500000" y2="118.000000" stroke="#9aa5ab" stroke-width="0.25"/>
<line data-entity="room" x1="307.500000" y1="174.000000" x2="269.500000" y2="174.000000" stroke="#9aa5ab" stroke-width="0.25"/>
<line data-entity="room" x1="307.500000" y1="118.000000" x2="269.500000" y2="118.000000" stroke="#9aa5ab" stroke-width="0.25"/>
<line data-entity="room" x1="307.500000" y1="174.000000" x2="307.500000" y2="146.000000" stroke="#9aa5ab" stroke-width="0.25"/>
<line data-entity="room" x1="307.500000" y1="146.000000" x2="307.500000" y2="118.000000" stroke="#9aa5ab" stroke-width="0.25"/>
<line data-entity="room" x1="231.500000" y1="174.000000" x2="231.500000" y2="146.000000" stroke="#9aa5ab" stroke-width="0.25"/>
<line data-entity="room" x1="231.500000" y1="146.000000" x2="231.500000" y2="118.000000" stroke="#9aa5ab" stroke-width="0.25"/>
<line data-entity="floor" x1="107.500000" y1="177.000000" x2="209.500000" y2="177.000000" stroke="#253543" stroke-width="0.25"/>
<line data-entity="floor" x1="107.500000" y1="174.000000" x2="209.500000" y2="174.000000" stroke="#253543" stroke-width="0.25"/>
<line data-entity="floor" x1="311.500000" y1="177.000000" x2="209.500000" y2="177.000000" stroke="#253543" stroke-width="0.25"/>
<line data-entity="floor" x1="311.500000" y1="174.000000" x2="209.500000" y2="174.000000" stroke="#253543" stroke-width="0.25"/>
<line data-entity="floor" x1="311.500000" y1="177.000000" x2="311.500000" y2="175.500000" stroke="#253543" stroke-width="0.25"/>
<line data-entity="floor" x1="311.500000" y1="175.500000" x2="311.500000" y2="174.000000" stroke="#253543" stroke-width="0.25"/>
<line data-entity="floor" x1="107.500000" y1="177.000000" x2="107.500000" y2="175.500000" stroke="#253543" stroke-width="0.25"/>
<line data-entity="floor" x1="107.500000" y1="175.500000" x2="107.500000" y2="174.000000" stroke="#253543" stroke-width="0.25"/>
<line data-entity="roof" x1="103.500000" y1="118.000000" x2="209.500000" y2="118.000000" stroke="#253543" stroke-width="0.25"/>
<line data-entity="roof" x1="103.500000" y1="114.000000" x2="209.500000" y2="114.000000" stroke="#253543" stroke-width="0.25"/>
<line data-entity="roof" x1="315.500000" y1="118.000000" x2="209.500000" y2="118.000000" stroke="#253543" stroke-width="0.25"/>
<line data-entity="roof" x1="315.500000" y1="114.000000" x2="209.500000" y2="114.000000" stroke="#253543" stroke-width="0.25"/>
<line data-entity="roof" x1="315.500000" y1="118.000000" x2="315.500000" y2="116.000000" stroke="#253543" stroke-width="0.25"/>
<line data-entity="roof" x1="315.500000" y1="116.000000" x2="315.500000" y2="114.000000" stroke="#253543" stroke-width="0.25"/>
<line data-entity="roof" x1="103.500000" y1="118.000000" x2="103.500000" y2="116.000000" stroke="#253543" stroke-width="0.25"/>
<line data-entity="roof" x1="103.500000" y1="116.000000" x2="103.500000" y2="114.000000" stroke="#253543" stroke-width="0.25"/>
<path d="M 103.5 181.0 V 188.0 M 315.5 181.0 V 188.0 M 103.5 185.0 H 315.5" fill="none" stroke="#53616a" stroke-width="0.2"/>
<text x="209.5" y="184.0" text-anchor="middle" font-family="sans-serif" font-size="3.5">10600 mm</text>
<text x="99.5" y="145.5" text-anchor="end" font-family="sans-serif" font-size="3.5">3150 mm</text>
</svg>
